{"asset":{"version":"2.0","generator":"FishFull tiny Blender-editable fish glTF"},"scene":0,"scenes":[{"nodes":[0]}],"nodes":[{"name":"crimson_sea_bream","mesh":0,"scale":[1,1,1]}],"meshes":[{"name":"crimson_sea_bream_mesh","primitives":[{"attributes":{"POSITION":0},"indices":1,"material":0}]}],"materials":[{"name":"crimson_sea_bream_body","pbrMetallicRoughness":{"baseColorFactor":[0.86,0.22,0.25,1],"metallicFactor":0,"roughnessFactor":0.45},"doubleSided":true},{"name":"crimson_sea_bream_highlight","pbrMetallicRoughness":{"baseColorFactor":[1,1,1,0.18],"metallicFactor":0,"roughnessFactor":0.7},"doubleSided":true}],"buffers":[{"uri":"data:application/octet-stream;base64,","byteLength":552}],"bufferViews":[{"buffer":0,"byteOffset":0,"byteLength":384,"target":34962},{"buffer":0,"byteOffset":384,"byteLength":168,"target":34963}],"accessors":[{"bufferView":0,"byteOffset":0,"componentType":5126,"count":32,"type":"VEC3","min":[-1.85,-0.78,-0.12],"max":[1.35,0.86,0.14]},{"bufferView":1,"byteOffset":0,"componentType":5123,"count":84,"type":"SCALAR","min":[0],"max":[31]}]}
