<svg xmlns="http://www.w3.org/2000/svg" viewBox="0 0 41 41" width="41mm" height="41mm" shape-rendering="crispEdges"><rect width="41" height="41" fill="#fff"/><path fill="#102233" d="M2,2h7v1H2zM11,2h6v1H11zM19,2h1v1H19zM21,2h2v1H21zM24,2h1v1H24zM27,2h2v1H27zM32,2h7v1H32zM2,3h1v1H2zM8,3h1v1H8zM10,3h1v1H10zM13,3h2v1H13zM16,3h1v1H16zM19,3h2v1H19zM22,3h1v1H22zM32,3h1v1H32zM38,3h1v1H38zM2,4h1v1H2zM4,4h3v1H4zM8,4h1v1H8zM10,4h3v1H10zM18,4h1v1H18zM23,4h1v1H23zM25,4h1v1H25zM28,4h3v1H28zM32,4h1v1H32zM34,4h3v1H34zM38,4h1v1H38zM2,5h1v1H2zM4,5h3v1H4zM8,5h1v1H8zM10,5h3v1H10zM17,5h1v1H17zM19,5h1v1H19zM22,5h6v1H22zM29,5h2v1H29zM32,5h1v1H32zM34,5h3v1H34zM38,5h1v1H38zM2,6h1v1H2zM4,6h3v1H4zM8,6h1v1H8zM11,6h1v1H11zM13,6h1v1H13zM16,6h1v1H16zM19,6h5v1H19zM25,6h1v1H25zM27,6h1v1H27zM30,6h1v1H30zM32,6h1v1H32zM34,6h3v1H34zM38,6h1v1H38zM2,7h1v1H2zM8,7h1v1H8zM12,7h1v1H12zM14,7h1v1H14zM16,7h2v1H16zM19,7h1v1H19zM24,7h1v1H24zM32,7h1v1H32zM38,7h1v1H38zM2,8h7v1H2zM10,8h1v1H10zM12,8h1v1H12zM14,8h1v1H14zM16,8h1v1H16zM18,8h1v1H18zM20,8h1v1H20zM22,8h1v1H22zM24,8h1v1H24zM26,8h1v1H26zM28,8h1v1H28zM30,8h1v1H30zM32,8h7v1H32zM10,9h1v1H10zM12,9h1v1H12zM14,9h1v1H14zM19,9h3v1H19zM25,9h2v1H25zM28,9h3v1H28zM2,10h1v1H2zM8,10h1v1H8zM10,10h1v1H10zM13,10h4v1H13zM18,10h1v1H18zM24,10h1v1H24zM27,10h2v1H27zM31,10h2v1H31zM35,10h3v1H35zM2,11h1v1H2zM7,11h1v1H7zM9,11h1v1H9zM11,11h1v1H11zM13,11h1v1H13zM15,11h2v1H15zM18,11h1v1H18zM20,11h1v1H20zM23,11h4v1H23zM29,11h1v1H29zM33,11h5v1H33zM2,12h1v1H2zM4,12h3v1H4zM8,12h3v1H8zM12,12h3v1H12zM16,12h3v1H16zM21,12h1v1H21zM23,12h2v1H23zM26,12h2v1H26zM29,12h2v1H29zM32,12h1v1H32zM37,12h2v1H37zM2,13h2v1H2zM5,13h2v1H5zM9,13h1v1H9zM11,13h1v1H11zM14,13h1v1H14zM21,13h2v1H21zM24,13h1v1H24zM31,13h1v1H31zM33,13h1v1H33zM35,13h1v1H35zM38,13h1v1H38zM2,14h1v1H2zM4,14h2v1H4zM7,14h4v1H7zM12,14h1v1H12zM15,14h1v1H15zM17,14h1v1H17zM26,14h1v1H26zM30,14h1v1H30zM32,14h1v1H32zM38,14h1v1H38zM2,15h1v1H2zM5,15h1v1H5zM7,15h1v1H7zM9,15h3v1H9zM13,15h1v1H13zM15,15h1v1H15zM17,15h2v1H17zM20,15h3v1H20zM25,15h1v1H25zM29,15h3v1H29zM33,15h1v1H33zM35,15h1v1H35zM3,16h1v1H3zM6,16h1v1H6zM8,16h5v1H8zM15,16h1v1H15zM17,16h2v1H17zM20,16h1v1H20zM22,16h3v1H22zM26,16h1v1H26zM28,16h3v1H28zM32,16h4v1H32zM37,16h2v1H37zM4,17h1v1H4zM6,17h1v1H6zM9,17h1v1H9zM11,17h1v1H11zM13,17h1v1H13zM15,17h3v1H15zM28,17h1v1H28zM30,17h4v1H30zM35,17h3v1H35zM5,18h2v1H5zM8,18h1v1H8zM10,18h2v1H10zM15,18h2v1H15zM20,18h1v1H20zM24,18h1v1H24zM26,18h3v1H26zM31,18h4v1H31zM36,18h3v1H36zM6,19h1v1H6zM9,19h1v1H9zM11,19h6v1H11zM18,19h2v1H18zM23,19h1v1H23zM25,19h1v1H25zM27,19h4v1H27zM33,19h1v1H33zM37,19h1v1H37zM2,20h3v1H2zM7,20h3v1H7zM12,20h2v1H12zM15,20h2v1H15zM18,20h2v1H18zM21,20h3v1H21zM25,20h1v1H25zM27,20h1v1H27zM29,20h2v1H29zM32,20h1v1H32zM38,20h1v1H38zM4,21h1v1H4zM9,21h1v1H9zM12,21h4v1H12zM17,21h2v1H17zM20,21h2v1H20zM24,21h1v1H24zM29,21h1v1H29zM31,21h2v1H31zM38,21h1v1H38zM2,22h1v1H2zM4,22h2v1H4zM8,22h3v1H8zM13,22h2v1H13zM16,22h1v1H16zM19,22h2v1H19zM24,22h2v1H24zM27,22h3v1H27zM31,22h2v1H31zM34,22h3v1H34zM3,23h2v1H3zM7,23h1v1H7zM9,23h2v1H9zM15,23h7v1H15zM23,23h3v1H23zM27,23h3v1H27zM31,23h1v1H31zM34,23h1v1H34zM36,23h1v1H36zM3,24h1v1H3zM5,24h2v1H5zM8,24h1v1H8zM11,24h2v1H11zM14,24h4v1H14zM19,24h1v1H19zM23,24h2v1H23zM29,24h2v1H29zM33,24h3v1H33zM37,24h2v1H37zM4,25h1v1H4zM6,25h2v1H6zM11,25h1v1H11zM14,25h1v1H14zM19,25h4v1H19zM24,25h1v1H24zM26,25h1v1H26zM28,25h1v1H28zM31,25h5v1H31zM37,25h2v1H37zM3,26h2v1H3zM6,26h1v1H6zM8,26h1v1H8zM10,26h1v1H10zM17,26h1v1H17zM19,26h1v1H19zM21,26h1v1H21zM25,26h2v1H25zM28,26h3v1H28zM32,26h1v1H32zM37,26h2v1H37zM2,27h5v1H2zM9,27h2v1H9zM12,27h1v1H12zM19,27h4v1H19zM25,27h1v1H25zM29,27h2v1H29zM33,27h1v1H33zM35,27h2v1H35zM2,28h1v1H2zM5,28h4v1H5zM11,28h1v1H11zM13,28h1v1H13zM15,28h5v1H15zM22,28h2v1H22zM26,28h1v1H26zM28,28h3v1H28zM32,28h2v1H32zM36,28h3v1H36zM2,29h1v1H2zM4,29h2v1H4zM10,29h2v1H10zM14,29h2v1H14zM18,29h1v1H18zM20,29h1v1H20zM22,29h1v1H22zM30,29h2v1H30zM33,29h4v1H33zM2,30h1v1H2zM4,30h2v1H4zM7,30h2v1H7zM10,30h2v1H10zM15,30h1v1H15zM17,30h3v1H17zM22,30h1v1H22zM24,30h1v1H24zM26,30h2v1H26zM29,30h6v1H29zM36,30h1v1H36zM10,31h2v1H10zM16,31h3v1H16zM20,31h6v1H20zM27,31h1v1H27zM30,31h1v1H30zM34,31h1v1H34zM2,32h7v1H2zM11,32h2v1H11zM14,32h1v1H14zM17,32h6v1H17zM25,32h1v1H25zM30,32h1v1H30zM32,32h1v1H32zM34,32h1v1H34zM38,32h1v1H38zM2,33h1v1H2zM8,33h1v1H8zM14,33h1v1H14zM16,33h1v1H16zM21,33h2v1H21zM24,33h3v1H24zM29,33h2v1H29zM34,33h1v1H34zM38,33h1v1H38zM2,34h1v1H2zM4,34h3v1H4zM8,34h1v1H8zM12,34h1v1H12zM15,34h1v1H15zM17,34h1v1H17zM20,34h3v1H20zM27,34h8v1H27zM36,34h1v1H36zM38,34h1v1H38zM2,35h1v1H2zM4,35h3v1H4zM8,35h1v1H8zM11,35h1v1H11zM15,35h1v1H15zM21,35h1v1H21zM25,35h1v1H25zM27,35h2v1H27zM30,35h3v1H30zM36,35h1v1H36zM38,35h1v1H38zM2,36h1v1H2zM4,36h3v1H4zM8,36h1v1H8zM12,36h1v1H12zM15,36h2v1H15zM20,36h1v1H20zM22,36h2v1H22zM26,36h1v1H26zM28,36h1v1H28zM31,36h1v1H31zM36,36h3v1H36zM2,37h1v1H2zM8,37h1v1H8zM12,37h1v1H12zM16,37h3v1H16zM22,37h1v1H22zM26,37h1v1H26zM28,37h1v1H28zM30,37h2v1H30zM34,37h2v1H34zM38,37h1v1H38zM2,38h7v1H2zM10,38h2v1H10zM13,38h3v1H13zM22,38h1v1H22zM24,38h1v1H24zM26,38h1v1H26zM30,38h2v1H30zM33,38h1v1H33zM38,38h1v1H38z"/></svg>